<svg xmlns="http://www.w3.org/2000/svg" viewBox="0 0 220 48" fill="none">
  
  <path d="M14 29a10 10 0 0 1 20 0" fill="#C2502F"></path>
  <line x1="6" y1="29" x2="42" y2="29" stroke="#242921" stroke-width="2.5" stroke-linecap="round"></line>
  <line x1="12" y1="35.5" x2="36" y2="35.5" stroke="#242921" stroke-width="2.5" stroke-linecap="round" stroke-dasharray="0.1 6"></line>
  <path d="M67.995 15.620L67.995 15.620L65.745 15.140L67.530 13.745L68.130 13.745L68.970 20.630L67.935 20.750L65.400 16.130L66.150 17.030Q65.340 16.460 64.477 16.213Q63.615 15.965 62.625 15.965L62.625 15.965Q60.675 15.965 59.640 16.775Q58.605 17.585 58.605 19.040L58.605 19.040Q58.605 19.985 59.025 20.623Q59.445 21.260 60.180 21.703Q60.915 22.145 61.852 22.468Q62.790 22.790 63.810 23.120L63.810 23.120Q64.845 23.450 65.873 23.870Q66.900 24.290 67.755 24.935Q68.610 25.580 69.127 26.585Q69.645 27.590 69.645 29.075L69.645 29.075Q69.645 31.145 68.655 32.532Q67.665 33.920 65.918 34.625Q64.170 35.330 61.860 35.330L61.860 35.330Q60.300 35.330 59.070 35.142Q57.840 34.955 56.535 34.445L56.535 34.445L55.305 28.940L56.445 28.940L60.105 34.415L57.195 32.480Q58.410 33.110 59.377 33.388Q60.345 33.665 61.515 33.665L61.515 33.665Q63.210 33.665 64.365 33.275Q65.520 32.885 66.112 32.075Q66.705 31.265 66.705 30.035L66.705 30.035Q66.705 28.940 66.188 28.227Q65.670 27.515 64.808 27.058Q63.945 26.600 62.918 26.270Q61.890 25.940 60.885 25.595L60.885 25.595Q59.865 25.250 58.957 24.815Q58.050 24.380 57.352 23.758Q56.655 23.135 56.258 22.220Q55.860 21.305 55.860 20L55.860 20Q55.860 18.260 56.708 17Q57.555 15.740 59.145 15.065Q60.735 14.390 62.910 14.390L62.910 14.390Q64.320 14.390 65.528 14.683Q66.735 14.975 67.995 15.620ZM78.810 33.845L78.810 33.845Q79.905 33.845 80.730 33.320Q81.555 32.795 82.020 31.685Q82.485 30.575 82.485 28.805L82.485 28.805Q82.485 26.855 82.035 25.543Q81.585 24.230 80.760 23.563Q79.935 22.895 78.750 22.895L78.750 22.895Q77.670 22.895 76.845 23.413Q76.020 23.930 75.555 25.047Q75.090 26.165 75.090 27.935L75.090 27.935Q75.090 29.855 75.532 31.175Q75.975 32.495 76.815 33.170Q77.655 33.845 78.810 33.845ZM78.705 35.330L78.705 35.330Q76.650 35.330 75.112 34.468Q73.575 33.605 72.735 32.068Q71.895 30.530 71.895 28.505L71.895 28.505Q71.895 26.420 72.787 24.815Q73.680 23.210 75.248 22.303Q76.815 21.395 78.870 21.395L78.870 21.395Q80.940 21.395 82.462 22.258Q83.985 23.120 84.832 24.650Q85.680 26.180 85.680 28.220L85.680 28.220Q85.680 30.305 84.787 31.910Q83.895 33.515 82.328 34.422Q80.760 35.330 78.705 35.330ZM90.555 17.555L90.555 17.555Q89.610 17.555 89.025 16.985Q88.440 16.415 88.440 15.530L88.440 15.530Q88.440 14.645 89.025 14.082Q89.610 13.520 90.555 13.520L90.555 13.520Q91.515 13.520 92.100 14.082Q92.685 14.645 92.685 15.530L92.685 15.530Q92.685 16.415 92.100 16.985Q91.515 17.555 90.555 17.555ZM89.220 36.770L89.220 24.575Q89.040 24.380 88.680 24.148Q88.320 23.915 87.885 23.683Q87.450 23.450 87 23.285L87 23.285L87 22.700L91.800 21.395L92.325 21.395L92.175 24.230L92.175 35.810Q92.175 36.725 92.093 37.392Q92.010 38.060 91.740 38.630Q91.470 39.200 90.938 39.778Q90.405 40.355 89.505 41.075Q88.605 41.795 87.270 42.785L87.270 42.785L86.475 41.855Q87.405 40.880 87.960 40.220Q88.515 39.560 88.777 39.035Q89.040 38.510 89.130 37.985Q89.220 37.460 89.220 36.770L89.220 36.770ZM102.045 33.845L102.045 33.845Q103.140 33.845 103.965 33.320Q104.790 32.795 105.255 31.685Q105.720 30.575 105.720 28.805L105.720 28.805Q105.720 26.855 105.270 25.543Q104.820 24.230 103.995 23.563Q103.170 22.895 101.985 22.895L101.985 22.895Q100.905 22.895 100.080 23.413Q99.255 23.930 98.790 25.047Q98.325 26.165 98.325 27.935L98.325 27.935Q98.325 29.855 98.767 31.175Q99.210 32.495 100.050 33.170Q100.890 33.845 102.045 33.845ZM101.940 35.330L101.940 35.330Q99.885 35.330 98.347 34.468Q96.810 33.605 95.970 32.068Q95.130 30.530 95.130 28.505L95.130 28.505Q95.130 26.420 96.022 24.815Q96.915 23.210 98.483 22.303Q100.050 21.395 102.105 21.395L102.105 21.395Q104.175 21.395 105.697 22.258Q107.220 23.120 108.067 24.650Q108.915 26.180 108.915 28.220L108.915 28.220Q108.915 30.305 108.022 31.910Q107.130 33.515 105.563 34.422Q103.995 35.330 101.940 35.330ZM115.230 23.375L115.230 30.515Q115.230 31.355 115.470 31.850Q115.710 32.345 116.287 32.570Q116.865 32.795 117.855 32.795L117.855 32.795Q118.785 32.795 119.677 32.480Q120.570 32.165 121.035 31.685L121.035 31.685L121.560 32.330Q120.660 33.230 119.947 33.815Q119.235 34.400 118.620 34.730Q118.005 35.060 117.390 35.195Q116.775 35.330 116.055 35.330L116.055 35.330Q114.120 35.330 113.197 34.167Q112.275 33.005 112.275 30.695L112.275 30.695L112.275 23.525L110.115 22.565L110.115 21.785L115.410 21.500L115.230 23.375ZM121.560 35.270L121.155 35.270L120.735 32.435L120.735 23.465L118.740 22.550L118.740 21.785L123.900 21.515L123.705 23.405L123.705 32.510Q123.855 32.645 124.095 32.810Q124.335 32.975 124.627 33.125Q124.920 33.275 125.212 33.395Q125.505 33.515 125.760 33.575L125.760 33.575L125.760 34.115L121.560 35.270ZM136.410 21.500L136.410 21.500Q137.235 21.500 137.625 21.928Q138.015 22.355 138.015 23.030L138.015 23.030Q138.015 23.855 137.542 24.320Q137.070 24.785 136.380 24.785L136.380 24.785Q135.900 24.785 135.480 24.672Q135.060 24.560 134.632 24.455Q134.205 24.350 133.710 24.350L133.710 24.350Q133.365 24.350 132.975 24.433Q132.585 24.515 132.217 24.688Q131.850 24.860 131.520 25.100L131.520 25.100L131.160 24.500Q132.090 23.690 132.855 23.120Q133.620 22.550 134.257 22.197Q134.895 21.845 135.427 21.672Q135.960 21.500 136.410 21.500ZM131.640 21.395L132 24.320L132 33.530L134.325 34.280L134.325 35L126.855 35L126.855 34.280L129.045 33.560L129.045 24.785Q128.835 24.560 128.512 24.358Q128.190 24.155 127.770 23.945Q127.350 23.735 126.825 23.525L126.825 23.525L126.825 23.030L131.220 21.395L131.640 21.395ZM143.400 21.395L144.030 24.320L144.030 33.590L146.130 34.280L146.130 35L138.885 35L138.885 34.280L141.075 33.560L141.075 24.785Q140.805 24.485 140.295 24.193Q139.785 23.900 138.855 23.525L138.855 23.525L138.855 23.030L142.980 21.395L143.400 21.395ZM148.005 35L148.005 34.280L150.105 33.590L150.105 26.390Q150.105 25.595 149.797 25.047Q149.490 24.500 148.852 24.215Q148.215 23.930 147.270 23.930L147.270 23.930Q146.190 23.930 145.245 24.282Q144.300 24.635 143.805 25.145L143.805 25.145L143.265 24.575Q144.225 23.615 144.982 23Q145.740 22.385 146.407 22.032Q147.075 21.680 147.750 21.538Q148.425 21.395 149.175 21.395L149.175 21.395Q151.170 21.395 152.122 22.587Q153.075 23.780 153.075 26.270L153.075 26.270L153.075 33.560L155.280 34.280L155.280 35L148.005 35Z" fill="#242921"></path>
</svg>